<?xml version="1.0" standalone="no"?>
<!DOCTYPE svg PUBLIC "-//W3C//DTD SVG 20010904//EN"
 "http://www.w3.org/TR/2001/REC-SVG-20010904/DTD/svg10.dtd">
<svg version="1.0" xmlns="http://www.w3.org/2000/svg"
 width="180.000000pt" height="180.000000pt" viewBox="0 0 180.000000 180.000000"
 preserveAspectRatio="xMidYMid meet">

<g transform="translate(0.000000,180.000000) scale(0.100000,-0.100000)"
fill="#000000" stroke="none">
<path d="M1080 1570 c-9 -6 -10 -10 -3 -10 6 0 15 5 18 10 8 12 4 12 -15 0z"/>
<path d="M1053 1525 c-3 -9 -3 -18 -1 -21 3 -3 8 4 11 16 6 23 -1 27 -10 5z"/>
<path d="M890 1460 c0 -6 -7 -10 -15 -10 -20 0 -59 -26 -96 -63 -24 -23 -32
-44 -42 -106 l-13 -76 -81 -3 c-69 -2 -85 -6 -107 -27 -32 -30 -32 -36 -1
-177 50 -234 107 -331 230 -396 46 -25 59 -27 175 -27 121 0 127 1 185 32 70
36 133 100 169 171 26 51 76 273 79 348 3 67 -11 76 -120 72 l-93 -3 0 31 c0
44 -24 118 -49 150 -11 14 -19 30 -16 34 6 9 -89 40 -125 40 -16 0 -40 4 -54
10 -17 6 -26 6 -26 0z m88 -116 c28 -8 75 -85 70 -115 -4 -29 -34 -36 -128
-29 -68 4 -75 7 -78 27 -7 49 57 127 89 108 5 -4 9 -1 9 4 0 13 6 13 38 5z"/>
<path d="M526 1421 c-3 -4 6 -6 19 -3 14 2 25 6 25 8 0 8 -39 4 -44 -5z"/>
<path d="M1384 1325 c8 -8 18 -15 22 -15 3 0 1 7 -6 15 -7 8 -17 15 -22 15 -5
0 -3 -7 6 -15z"/>
<path d="M1376 1237 c3 -10 9 -15 12 -12 3 3 0 11 -7 18 -10 9 -11 8 -5 -6z"/>
<path d="M460 415 c13 -14 26 -25 28 -25 3 0 -5 11 -18 25 -13 14 -26 25 -28
25 -3 0 5 -11 18 -25z"/>
</g>
</svg>
